<svg width="128" height="128" viewBox="0 0 128 128" xmlns="http://www.w3.org/2000/svg">
  <defs>
    <!-- Main gradient -->
    <linearGradient id="mainGradient" x1="0%" y1="0%" x2="100%" y2="100%">
      <stop offset="0%" style="stop-color:#4a9eff;stop-opacity:1" />
      <stop offset="50%" style="stop-color:#0078d4;stop-opacity:1" />
      <stop offset="100%" style="stop-color:#005a9e;stop-opacity:1" />
    </linearGradient>
    
    <!-- Secondary gradient for accent -->
    <linearGradient id="accentGradient" x1="0%" y1="0%" x2="100%" y2="100%">
      <stop offset="0%" style="stop-color:#ff6b35;stop-opacity:1" />
      <stop offset="100%" style="stop-color:#f7931e;stop-opacity:1" />
    </linearGradient>
    
    <!-- Shadow filter -->
    <filter id="shadow" x="-20%" y="-20%" width="140%" height="140%">
      <feDropShadow dx="2" dy="4" stdDeviation="3" flood-color="#000000" flood-opacity="0.3"/>
    </filter>
    
    <!-- Glow effect -->
    <filter id="glow" x="-20%" y="-20%" width="140%" height="140%">
      <feGaussianBlur stdDeviation="2" result="coloredBlur"/>
      <feMerge> 
        <feMergeNode in="coloredBlur"/>
        <feMergeNode in="SourceGraphic"/> 
      </feMerge>
    </filter>
  </defs>
  
  <!-- Background circle with gradient -->
  <circle cx="64" cy="64" r="58" fill="url(#mainGradient)" filter="url(#shadow)" stroke="#ffffff" stroke-width="2" opacity="0.95"/>
  
  <!-- Main scraper symbol - stylized 'S' with modern twist -->
  <g transform="translate(64,64)" filter="url(#glow)">
    <!-- Letter 'S' path with modern styling -->
    <path d="M -20 -25 Q -20 -35 -10 -35 L 10 -35 Q 20 -35 20 -25 Q 20 -15 10 -15 L -5 -15 Q -15 -15 -15 -5 Q -15 5 -5 5 L 15 5 Q 25 5 25 15 Q 25 25 15 25 L -15 25 Q -25 25 -25 15" 
          fill="#ffffff" 
          stroke="none" 
          stroke-width="2"/>
  </g>
  
  <!-- Accent elements - small circles representing data points -->
  <circle cx="32" cy="32" r="4" fill="url(#accentGradient)" opacity="0.8"/>
  <circle cx="96" cy="32" r="3" fill="url(#accentGradient)" opacity="0.6"/>
  <circle cx="32" cy="96" r="3" fill="url(#accentGradient)" opacity="0.6"/>
  <circle cx="96" cy="96" r="4" fill="url(#accentGradient)" opacity="0.8"/>
  
  <!-- Modern geometric accent lines -->
  <g opacity="0.4">
    <line x1="20" y1="20" x2="35" y2="35" stroke="#ffffff" stroke-width="2" stroke-linecap="round"/>
    <line x1="93" y1="20" x2="108" y2="35" stroke="#ffffff" stroke-width="2" stroke-linecap="round"/>
    <line x1="20" y1="108" x2="35" y2="93" stroke="#ffffff" stroke-width="2" stroke-linecap="round"/>
    <line x1="93" y1="108" x2="108" y2="93" stroke="#ffffff" stroke-width="2" stroke-linecap="round"/>
  </g>
  
  <!-- Subtle inner highlight -->
  <circle cx="64" cy="64" r="52" fill="none" stroke="#ffffff" stroke-width="1" opacity="0.2"/>
</svg>